<?xml version="1.0" encoding="utf-8"?>
<!-- Generator: Adobe Illustrator 16.0.4, SVG Export Plug-In . SVG Version: 6.00 Build 0)  -->
<!DOCTYPE svg PUBLIC "-//W3C//DTD SVG 1.1//EN" "http://www.w3.org/Graphics/SVG/1.1/DTD/svg11.dtd">
<svg version="1.1" id="Layer_1" xmlns="http://www.w3.org/2000/svg" xmlns:xlink="http://www.w3.org/1999/xlink" x="0px" y="0px"
	 width="900px" height="900px" viewBox="0 0 900 900" enable-background="new 0 0 900 900" xml:space="preserve">
<g>
	<g>
		<path fill="#3E00E2" d="M247.593,396.108c4.167-8.268,8.624-16.543,13.249-24.604c1.536-2.689,2.945-5.018,4.184-6.912
			c1.049-1.598,2.159-2.881,3.297-3.812c1.015-0.828,2.17-1.391,3.527-1.719c1.628-0.393,3.777-0.591,6.388-0.591h21.288v61.625
			c0,7.729-0.033,15.009-0.098,21.631c-0.068,6.307-0.17,12.064-0.302,17.117c-0.233,3.359-1.602,3.758-2.395,3.988l-25.986,7.979
			l1.45,15.6l3.744-0.102c14.769-0.398,30.533-0.6,46.855-0.6c16.453,0,33.436,0.201,50.477,0.6l4.288,0.102l-0.729-15.73
			l-26.977-8.25c-2.318-0.711-2.549-1.713-2.59-2.691c-0.134-5.604-0.236-11.664-0.305-18.009
			c-0.065-6.292-0.098-13.369-0.098-21.633V258.341c0-7.154,0.032-13.243,0.098-18.614c0.068-5.376,0.169-10.453,0.301-15.092
			c0.202-2.473,1.179-3.095,2.104-3.446l28.277-8.751l-1.437-15.804l-3.761,0.111c-17.963,0.531-34.601,0.8-49.451,0.8
			c-10.697,0-20.808-0.301-30.05-0.896c-9.371-0.604-18.167-0.91-26.145-0.91c-30.305,0-55.345,7.15-74.423,21.253
			c-19.456,14.378-29.32,34.772-29.32,60.614c0,37.039,19.321,61.724,57.449,73.44c-6.044,9.941-11.588,19.506-16.514,28.491
			c-5.618,10.246-11.104,19.974-16.301,28.903c-6.422,10.964-12.221,20.74-17.234,29.054c-4.906,8.128-9.567,14.42-13.858,18.706
			c-2.364,2.369-4.576,4.275-6.578,5.668c-1.991,1.387-4.097,2.578-6.264,3.541c-2.214,0.986-4.669,1.867-7.295,2.617
			c-2.952,0.842-6.107,1.715-9.376,2.592l-3.177,0.854l1.05,15.385l3.254,0.42c8.418,1.09,16.153,1.641,22.991,1.641
			c5.543,0,10.491-0.137,14.706-0.41c4.339-0.279,8.267-0.816,11.675-1.596c3.533-0.811,6.764-1.979,9.601-3.471
			c2.73-1.436,5.502-3.258,8.227-5.406c6.496-5.086,13.056-12.93,19.498-23.318c6.24-10.07,12.797-21.485,19.448-33.854
			C238.933,412.786,243.386,404.457,247.593,396.108z M215.005,276.604c0-19.603,4.907-34.039,14.586-42.908
			c9.777-8.958,25.691-13.5,47.302-13.5c6.851,0,14.45,0.407,22.633,1.211v114.491c-4.996,0.083-10.73,0.124-17.108,0.124
			c-22.961,0-40.167-4.804-51.14-14.278C220.479,312.414,215.005,297.227,215.005,276.604z M728.18,683.898
			c-2.519-0.775-2.565-1.816-2.597-2.496c-0.264-10.715-0.397-24.119-0.397-39.842V478.807c0-13.312,0.134-24.48,0.396-33.157
			c0.082-2.054,0.823-2.735,2.08-3.187l28.312-8.76l-1.451-15.611l-3.763,0.12c-16.62,0.531-33.059,0.801-48.857,0.801H532.286
			c-15.803,0-32.513-0.27-49.664-0.801l-4.322-0.134l0.737,15.741l27.483,8.641c1.262,0.452,2.007,1.129,2.084,3.151
			c0.264,8.739,0.397,19.907,0.397,33.196v162.754c0,15.695-0.134,29.1-0.396,39.768c-0.033,0.758-0.077,1.795-2.576,2.562
			l-27.818,8.369l1.452,15.602l3.729-0.086c17.192-0.398,33.907-0.6,49.68-0.6c15.771,0,31.808,0.201,47.664,0.6l4.399,0.109
			l-1.106-15.732l-24.999-7.881c-1.428-0.398-2.217-1.014-2.293-3.07c-0.266-10.559-0.399-23.895-0.399-39.641V445.275h121.512
			v196.285c0,15.725-0.202,29.045-0.602,39.596c-0.077,2.102-0.865,2.717-2.293,3.115l-25.884,8.016l1.444,15.586l3.742-0.098
			c15.184-0.398,30.915-0.6,46.76-0.6c15.97,0,32.988,0.201,50.581,0.6l4.285,0.096l-0.729-15.725L728.18,683.898z M632.158,150.388
			L217.074,738.08l16.337,11.531L648.499,161.93L632.158,150.388z M450,1.985C202.568,1.985,1.985,202.568,1.985,450
			c0,247.431,200.583,448.015,448.015,448.015S898.015,697.432,898.015,450C898.015,202.568,697.432,1.985,450,1.985z M450,881.061
			c-238.068,0-431.061-192.992-431.061-431.06C18.939,211.931,211.932,18.939,450,18.939S881.061,211.931,881.061,450
			C881.061,688.068,688.068,881.061,450,881.061z"/>
	</g>
</g>
</svg>
