<?xml version="1.0" encoding="utf-8"?>
<!-- Generator: Adobe Illustrator 16.0.4, SVG Export Plug-In . SVG Version: 6.00 Build 0)  -->
<!DOCTYPE svg PUBLIC "-//W3C//DTD SVG 1.1//EN" "http://www.w3.org/Graphics/SVG/1.1/DTD/svg11.dtd">
<svg version="1.1" id="Layer_1" xmlns="http://www.w3.org/2000/svg" xmlns:xlink="http://www.w3.org/1999/xlink" x="0px" y="0px"
	 width="900px" height="900px" viewBox="0 0 900 900" enable-background="new 0 0 900 900" xml:space="preserve">
<path fill="#3E00E2" d="M900,450c0,248.527-201.471,450-450,450C201.472,900,0,698.527,0,450C0,201.472,201.472,0,450,0
	C698.529,0,900,201.472,900,450z"/>
<path fill="#FFFFFF" d="M514.008,371.663c67.521-89.461,111.409-155.604,105.195-160.542c-8.165-6.489-99.773,95.201-204.614,227.13
	c-7.421,9.337-14.708,18.577-21.842,27.686c-6.594,8.422-11.909,6.602-11.909-4.096V258.76c0-10.696-8.671-19.367-19.367-19.367
	h-142.47c-57.301,0-103.753,46.452-103.753,103.753c0,41.062,23.856,76.548,58.464,93.364c9.621,4.674,12.765,13.611,6.171,22.033
	l-45.918,58.65c-6.593,8.422-3.268,15.25,7.428,15.25h180.885c10.696,0,14.148,6.924,7.761,15.504
	c-59.088,79.377-96.243,136.361-90.494,140.932c8.165,6.488,99.774-95.201,204.614-227.129c4.537-5.709,9.024-11.381,13.456-17.01
	c6.619-8.404,11.952-6.568,11.952,4.128v211.909c0,10.695,8.671,19.365,19.367,19.365h245.019c10.696,0,19.367-8.67,19.367-19.365
	V406.46c0-10.697-8.671-19.367-19.367-19.367H521.67C510.974,387.093,507.563,380.2,514.008,371.663z"/>
</svg>
